<?xml version="1.0" encoding="UTF-8" standalone="no"?>
<svg
   xmlns:dc="http://purl.org/dc/elements/1.1/"
   xmlns:cc="http://creativecommons.org/ns#"
   xmlns:rdf="http://www.w3.org/1999/02/22-rdf-syntax-ns#"
   xmlns:svg="http://www.w3.org/2000/svg"
   xmlns="http://www.w3.org/2000/svg"
   xmlns:sodipodi="http://sodipodi.sourceforge.net/DTD/sodipodi-0.dtd"
   xmlns:inkscape="http://www.inkscape.org/namespaces/inkscape"
   version="1.1"
   id="ethereum"
   x="0px"
   y="0px"
   viewBox="0 0 220 100"
   style="enable-background:new 0 0 220 100;"
   xml:space="preserve"
   sodipodi:docname="ethereum-logo.svg"
   inkscape:version="1.0.1 (3bc2e813f5, 2020-09-07)"><metadata
   id="metadata47"><rdf:RDF><cc:Work
       rdf:about=""><dc:format>image/svg+xml</dc:format><dc:type
         rdf:resource="http://purl.org/dc/dcmitype/StillImage" /></cc:Work></rdf:RDF></metadata><defs
   id="defs45" /><sodipodi:namedview
   pagecolor="#ffffff"
   bordercolor="#666666"
   borderopacity="1"
   objecttolerance="10"
   gridtolerance="10"
   guidetolerance="10"
   inkscape:pageopacity="0"
   inkscape:pageshadow="2"
   inkscape:window-width="2508"
   inkscape:window-height="1376"
   id="namedview43"
   showgrid="false"
   inkscape:zoom="5.9772727"
   inkscape:cx="110"
   inkscape:cy="50"
   inkscape:window-x="0"
   inkscape:window-y="0"
   inkscape:window-maximized="1"
   inkscape:current-layer="ethereum" />
<style
   type="text/css"
   id="style2">
	.st0{fill:#3C3C3B;}
	.st1{fill:#8C8C8C;}
	.st2{fill:#393939;}
	.st3{fill:#343434;}
	.st4{fill:#151515;}
</style>
<g
   id="g20"
   style="fill:#d3d3d3;fill-opacity:1">
	<path
   class="st0"
   d="M80,52.9c0,0.3-0.3,0.6-0.6,0.6H68.1c0.3,2.8,2.4,5.4,5.4,5.4c2,0,3.5-0.8,4.7-2.4c0.1-0.2,0.3-0.3,0.5-0.3   c0.3,0,0.6,0.2,0.6,0.6c0,0.1,0,0.2-0.1,0.3c-1.1,2-3.4,3-5.6,3c-3.8,0-6.5-3.4-6.5-7.1c0-3.7,2.7-7.1,6.5-7.1S80,49.2,80,52.9    M78.8,52.3c-0.2-2.8-2.4-5.4-5.4-5.4s-5.1,2.6-5.4,5.4H78.8z"
   id="path4"
   style="fill:#d3d3d3;fill-opacity:1" />
	<path
   class="st0"
   d="M93.8,46.1c0.3,0,0.6,0.3,0.6,0.6c0,0.3-0.2,0.6-0.6,0.6h-3v11.9c0,0.3-0.2,0.6-0.6,0.6   c-0.3,0-0.6-0.3-0.6-0.6V47.2h-2.9c-0.3,0-0.6-0.2-0.6-0.6c0-0.3,0.2-0.6,0.6-0.6h2.9v-4.4c0-0.3,0.2-0.6,0.6-0.6   c0.3,0,0.6,0.2,0.6,0.6v4.4H93.8z"
   id="path6"
   style="fill:#d3d3d3;fill-opacity:1" />
	<path
   class="st0"
   d="M112.4,51.9v7.2c0,0.3-0.3,0.6-0.6,0.6c-0.3,0-0.6-0.2-0.6-0.6v-7.2c0-2.4-1.4-4.9-4.1-4.9c-3.5,0-5,3-4.8,6.2   c0,0.1,0,0.4,0,0.5v5.4c0,0.3-0.2,0.6-0.6,0.6c-0.3,0-0.6-0.2-0.6-0.6V35.3c0-0.3,0.2-0.6,0.6-0.6c0.3,0,0.6,0.3,0.6,0.6v13.4   c1-1.7,2.7-2.9,4.8-2.9C110.5,45.8,112.4,48.8,112.4,51.9"
   id="path8"
   style="fill:#d3d3d3;fill-opacity:1" />
	<path
   class="st0"
   d="M132.7,52.9c0,0.3-0.3,0.6-0.6,0.6h-11.3c0.3,2.8,2.4,5.4,5.4,5.4c2,0,3.5-0.8,4.7-2.4   c0.1-0.2,0.3-0.3,0.5-0.3c0.3,0,0.6,0.2,0.6,0.6c0,0.1,0,0.2-0.1,0.3c-1.1,2-3.4,3-5.6,3c-3.8,0-6.5-3.4-6.5-7.1   c0-3.7,2.7-7.1,6.5-7.1C130,45.8,132.7,49.2,132.7,52.9 M131.5,52.3c-0.2-2.8-2.4-5.4-5.4-5.4c-3,0-5.1,2.6-5.4,5.4H131.5z"
   id="path10"
   style="fill:#d3d3d3;fill-opacity:1" />
	<path
   class="st0"
   d="M146.7,46.6c0,0.4-0.2,0.6-0.5,0.6c-3.3,0.5-4.8,3.2-4.8,6.4V59c0,0.3-0.2,0.6-0.6,0.6c-0.3,0-0.6-0.2-0.6-0.6   V46.7c0-0.3,0.2-0.6,0.6-0.6c0.3,0,0.6,0.2,0.6,0.6v2.5c0.9-1.6,2.8-3.1,4.8-3.1C146.3,46.1,146.7,46.3,146.7,46.6"
   id="path12"
   style="fill:#d3d3d3;fill-opacity:1" />
	<path
   class="st0"
   d="M165.3,52.9c0,0.3-0.3,0.6-0.6,0.6h-11.3c0.3,2.8,2.4,5.4,5.4,5.4c2,0,3.5-0.8,4.7-2.4   c0.1-0.2,0.3-0.3,0.5-0.3c0.3,0,0.6,0.2,0.6,0.6c0,0.1,0,0.2-0.1,0.3c-1.1,2-3.4,3-5.6,3c-3.8,0-6.5-3.4-6.5-7.1   c0-3.7,2.7-7.1,6.5-7.1C162.5,45.8,165.3,49.2,165.3,52.9 M164.1,52.3c-0.2-2.8-2.4-5.4-5.4-5.4s-5.1,2.6-5.4,5.4H164.1z"
   id="path14"
   style="fill:#d3d3d3;fill-opacity:1" />
	<path
   class="st0"
   d="M183.6,46.7v3.9v8.5c0,0.3-0.3,0.6-0.6,0.6c-0.3,0-0.6-0.2-0.6-0.6v-2.4c-0.9,1.9-2.6,3.2-4.7,3.2   c-3.4,0-5.2-2.9-5.2-6v-7.3c0-0.3,0.2-0.6,0.6-0.6c0.3,0,0.6,0.3,0.6,0.6V54c0,2.4,1.4,4.9,4.1,4.9c3.8,0,4.7-3.6,4.7-7.5v-4.6   c0-0.3,0.2-0.6,0.6-0.6C183.3,46.2,183.6,46.4,183.6,46.7"
   id="path16"
   style="fill:#d3d3d3;fill-opacity:1" />
	<path
   class="st0"
   d="M212.3,51.8v7.3c0,0.3-0.3,0.6-0.6,0.6c-0.3,0-0.6-0.2-0.6-0.6v-7.3c0-2.4-1.4-4.8-4.1-4.8   c-3.4,0-4.7,3.7-4.7,6.5v5.6c0,0.3-0.3,0.6-0.6,0.6c-0.3,0-0.6-0.2-0.6-0.6v-7.3c0-2.4-1.4-4.8-4.1-4.8c-3.5,0-4.9,2.7-4.8,6.3   c0,0.1,0,0.2,0,0.3v5.5c0,0.3-0.2,0.6-0.6,0.6c-0.3,0-0.6-0.2-0.6-0.6V46.7c0-0.3,0.2-0.6,0.6-0.6c0.3,0,0.6,0.2,0.6,0.6v2.1   c1-1.7,2.7-2.9,4.8-2.9c2.3,0,4.1,1.5,4.8,3.6c0.9-2.1,2.8-3.6,5.1-3.6C210.4,45.8,212.3,48.7,212.3,51.8"
   id="path18"
   style="fill:#d3d3d3;fill-opacity:1" />
</g>
<g
   id="g40"
   style="fill:#d3d3d3;fill-opacity:1">
	<g
   id="LWPOLYLINE"
   style="fill:#d3d3d3;fill-opacity:1">
		<polyline
   class="st1"
   points="7.7,55.4 32.2,90 32.2,69.9 7.7,55.4   "
   id="polyline22"
   style="fill:#d3d3d3;fill-opacity:1" />
	</g>
	<g
   id="LWPOLYLINE_1_"
   style="fill:#d3d3d3;fill-opacity:1">
		<polyline
   class="st2"
   points="7.7,50.7 32.2,65.3 32.2,39.6 7.7,50.7   "
   id="polyline25"
   style="fill:#d3d3d3;fill-opacity:1" />
	</g>
	<g
   id="LWPOLYLINE_2_"
   style="fill:#d3d3d3;fill-opacity:1">
		<polyline
   class="st1"
   points="7.7,50.7 32.2,39.6 32.2,10 7.7,50.7   "
   id="polyline28"
   style="fill:#d3d3d3;fill-opacity:1" />
	</g>
	<g
   id="LWPOLYLINE_3_"
   style="fill:#d3d3d3;fill-opacity:1">
		<polyline
   class="st3"
   points="56.8,55.4 32.2,90 32.2,69.9 56.8,55.4   "
   id="polyline31"
   style="fill:#d3d3d3;fill-opacity:1" />
	</g>
	<g
   id="LWPOLYLINE_4_"
   style="fill:#d3d3d3;fill-opacity:1">
		<polyline
   class="st4"
   points="56.8,50.7 32.2,65.3 32.2,39.6 56.8,50.7   "
   id="polyline34"
   style="fill:#d3d3d3;fill-opacity:1" />
	</g>
	<g
   id="LWPOLYLINE_5_"
   style="fill:#d3d3d3;fill-opacity:1">
		<polyline
   class="st3"
   points="56.8,50.7 32.2,39.6 32.2,10 56.8,50.7   "
   id="polyline37"
   style="fill:#d3d3d3;fill-opacity:1" />
	</g>
</g>
</svg>
