<svg width="495" height="122" viewBox="0 0 495 122" fill="none" xmlns="http://www.w3.org/2000/svg">
<g clip-path="url(#clip0_50_14)">
<path d="M168.392 35.448C172.504 35.3433 176.576 36.2717 180.236 38.148C183.499 39.8775 186.178 42.5327 187.936 45.78C189.791 49.2929 190.72 53.2204 190.636 57.192C190.615 59.1968 190.422 61.196 190.06 63.168C189.328 67.7149 187.568 72.035 184.916 75.8C182.356 79.4214 178.96 82.3716 175.016 84.4C170.941 86.4873 166.418 87.5512 161.84 87.5C157.694 87.6068 153.586 86.6789 149.888 84.8C146.622 83.0899 143.941 80.4436 142.188 77.2C140.354 73.6965 139.436 69.7857 139.52 65.832C139.537 63.7793 139.729 61.7318 140.096 59.712C140.829 55.1634 142.59 50.8418 145.244 47.076C147.806 43.4507 151.217 40.5088 155.18 38.508C159.276 36.4472 163.807 35.3979 168.392 35.448ZM167.6 44.808C163.383 44.7496 159.307 46.3232 156.224 49.2C152.898 52.333 150.718 56.4904 150.032 61.008C149.813 62.3414 149.693 63.689 149.672 65.04C149.672 69.072 150.824 72.252 153.128 74.58C155.432 76.908 158.599 78.072 162.628 78.072C165.416 78.0948 168.165 77.4138 170.62 76.092C173.109 74.7345 175.234 72.7955 176.812 70.44C178.541 67.8667 179.673 64.9392 180.124 61.872C180.378 60.5204 180.498 59.1471 180.484 57.772C180.484 53.74 179.332 50.5733 177.028 48.272C174.724 45.9707 171.581 44.816 167.6 44.808ZM225.272 46.608C229.688 46.608 233.204 47.9747 235.82 50.708C238.436 53.4413 239.744 57.2333 239.744 62.084C239.737 63.7491 239.592 65.4107 239.312 67.052C238.658 70.9417 237.212 74.6556 235.064 77.964C233.16 80.9103 230.563 83.3452 227.5 85.056C224.594 86.6682 221.323 87.5095 218 87.5C215.083 87.635 212.204 86.7855 209.828 85.088C207.757 83.5104 206.355 81.2116 205.9 78.648L201.08 106.008H190.928L201.3 47.112H211.448L209.936 55.392C211.402 52.7261 213.568 50.5106 216.2 48.984C218.952 47.3829 222.088 46.5615 225.272 46.608ZM216.416 78.576C219.417 78.6207 222.324 77.5274 224.552 75.516C226.959 73.2859 228.534 70.3017 229.016 67.056C229.152 66.1502 229.224 65.2359 229.232 64.32C229.309 63.1261 229.141 61.9291 228.738 60.8024C228.336 59.6757 227.708 58.6432 226.892 57.768C226.026 56.9732 225.01 56.3601 223.903 55.965C222.796 55.5699 221.621 55.4009 220.448 55.468C217.437 55.4443 214.53 56.5636 212.312 58.6C209.889 60.8182 208.312 63.8083 207.848 67.06C207.708 67.917 207.636 68.7837 207.632 69.652C207.565 70.8503 207.745 72.0497 208.159 73.1759C208.574 74.3022 209.216 75.3314 210.044 76.2C210.892 77.0042 211.893 77.6292 212.988 78.0374C214.083 78.4457 215.249 78.6289 216.416 78.576ZM256.88 73.1C256.772 73.6694 256.723 74.2485 256.736 74.828C256.679 75.3256 256.741 75.8296 256.916 76.2989C257.091 76.7681 257.375 77.1893 257.744 77.528C258.743 78.1159 259.9 78.3799 261.056 78.284H265.016L263.432 87H258.1C254.308 87 251.404 86.2333 249.388 84.7C247.372 83.1667 246.364 80.6467 246.364 77.14C246.375 75.7374 246.519 74.3391 246.796 72.964L249.82 55.684H244.28L245.792 47.116H251.336L253.064 37.252H263.288L261.56 47.116H270.344L268.832 55.684H259.976L256.88 73.1ZM279.344 36.668C279.327 35.7824 279.505 34.9038 279.866 34.0949C280.226 33.286 280.761 32.5666 281.432 31.988C282.882 30.7183 284.762 30.0489 286.688 30.116C288.085 30.0362 289.46 30.4861 290.54 31.376C290.999 31.7861 291.363 32.2921 291.605 32.8582C291.846 33.4243 291.961 34.0367 291.94 34.652C291.961 35.5294 291.788 36.4006 291.433 37.2033C291.078 38.0061 290.551 38.7207 289.888 39.296C288.444 40.548 286.578 41.2043 284.668 41.132C283.254 41.2188 281.858 40.7832 280.744 39.908C280.284 39.5073 279.919 39.0087 279.677 38.4487C279.435 37.8888 279.321 37.2817 279.344 36.672V36.668ZM288.704 47.108L281.648 87H271.5L278.556 47.112L288.704 47.108ZM348.752 46.532C352.88 46.532 356.084 47.648 358.364 49.88C360.644 52.112 361.784 55.316 361.784 59.492C361.791 60.9398 361.671 62.3854 361.424 63.812L357.32 87H347.168L351.128 64.968C351.267 64.1593 351.339 63.3405 351.344 62.52C351.409 61.5509 351.269 60.5791 350.934 59.6674C350.599 58.7557 350.077 57.9246 349.4 57.228C347.909 55.9337 345.971 55.2746 344 55.392C341.376 55.317 338.82 56.2291 336.836 57.948C334.736 59.9464 333.377 62.5996 332.984 65.472L329.168 87H319.016L322.976 64.968C323.115 64.1593 323.187 63.3405 323.192 62.52C323.257 61.5509 323.117 60.5791 322.782 59.6674C322.447 58.7557 321.925 57.9246 321.248 57.228C319.757 55.9337 317.819 55.2746 315.848 55.392C313.185 55.3294 310.598 56.2817 308.612 58.056C306.469 60.1256 305.108 62.873 304.76 65.832V65.472L301.016 87H290.792L297.848 47.112H308L306.7 54.6C308.13 52.113 310.208 50.0602 312.712 48.66C315.251 47.2389 318.118 46.5067 321.028 46.536C323.87 46.4241 326.672 47.2306 329.02 48.836C331.183 50.4514 332.671 52.8114 333.196 55.46C334.882 52.7645 337.206 50.5264 339.964 48.944C342.625 47.3704 345.66 46.5389 348.752 46.536V46.532ZM374.024 36.668C374.007 35.7824 374.185 34.9038 374.546 34.0949C374.906 33.286 375.441 32.5666 376.112 31.988C377.562 30.7183 379.442 30.0489 381.368 30.116C382.765 30.0362 384.14 30.4861 385.22 31.376C385.679 31.7861 386.043 32.2921 386.285 32.8582C386.526 33.4243 386.641 34.0367 386.62 34.652C386.641 35.5294 386.468 36.4006 386.113 37.2033C385.758 38.0061 385.231 38.7207 384.568 39.296C383.124 40.548 381.258 41.2043 379.348 41.132C377.934 41.2188 376.538 40.7832 375.424 39.908C374.964 39.5073 374.599 39.0087 374.357 38.4487C374.115 37.8888 374.001 37.2817 374.024 36.672V36.668ZM383.384 47.108L376.328 87H366.176L373.232 47.112L383.384 47.108ZM404.484 46.608C409.86 46.608 413.952 47.82 416.76 50.244C418.164 51.4738 419.296 52.9832 420.083 54.6755C420.87 56.3679 421.296 58.2059 421.332 60.072H411.396C411.414 59.1916 411.236 58.3182 410.875 57.515C410.513 56.7118 409.978 55.999 409.308 55.428C407.673 54.207 405.657 53.6072 403.62 53.736C402.051 53.6627 400.5 54.0915 399.192 54.96C398.655 55.3261 398.219 55.8212 397.923 56.3999C397.627 56.9786 397.482 57.6224 397.5 58.272C397.493 58.9432 397.684 59.6015 398.049 60.1649C398.414 60.7283 398.937 61.1718 399.552 61.44C401.593 62.4021 403.729 63.1501 405.924 63.672C408.233 64.3236 410.503 65.1049 412.724 66.012C414.464 66.7472 416.015 67.8673 417.26 69.288C418.585 70.8786 419.266 72.9081 419.168 74.976C419.167 75.8955 419.071 76.8125 418.88 77.712C418.586 79.1724 417.993 80.5561 417.138 81.776C416.283 82.9959 415.185 84.0255 413.912 84.8C411.176 86.6 407.528 87.5 402.968 87.5C397.736 87.5 393.547 86.3133 390.4 83.94C388.862 82.7941 387.619 81.2985 386.774 79.577C385.929 77.8555 385.506 75.9575 385.54 74.04H395.476C395.378 74.9211 395.516 75.8125 395.877 76.6224C396.237 77.4323 396.807 78.1315 397.528 78.648C399.381 79.9002 401.595 80.5074 403.828 80.376C405.401 80.4834 406.959 80.0221 408.22 79.076C408.706 78.6743 409.095 78.1676 409.357 77.5939C409.619 77.0201 409.747 76.3945 409.732 75.764C409.745 75.2716 409.651 74.7823 409.459 74.329C409.266 73.8756 408.979 73.4688 408.616 73.136C407.812 72.4039 406.87 71.8408 405.844 71.48C404.74 71.072 403.156 70.58 401.092 70.004C398.844 69.3981 396.632 68.6636 394.468 67.804C392.8 67.1169 391.32 66.0434 390.148 64.672C388.896 63.1308 388.256 61.1831 388.348 59.2C388.352 58.3317 388.424 57.465 388.564 56.608C388.835 55.1247 389.414 53.7149 390.264 52.4697C391.115 51.2246 392.217 50.172 393.5 49.38C396.26 47.532 399.92 46.608 404.48 46.608H404.484ZM481.812 46.536C485.94 46.536 489.144 47.652 491.424 49.884C493.704 52.116 494.844 55.32 494.844 59.496C494.851 60.9438 494.731 62.3894 494.484 63.816L490.376 87H480.224L484.184 64.968C484.323 64.1593 484.395 63.3405 484.4 62.52C484.465 61.5509 484.325 60.5791 483.99 59.6674C483.655 58.7557 483.133 57.9246 482.456 57.228C480.965 55.9337 479.027 55.2746 477.056 55.392C474.432 55.317 471.876 56.2291 469.892 57.948C467.792 59.9464 466.433 62.5996 466.04 65.472L462.224 87H452.072L456.032 64.968C456.171 64.1593 456.243 63.3405 456.248 62.52C456.313 61.5509 456.173 60.5791 455.838 59.6674C455.503 58.7557 454.981 57.9246 454.304 57.228C452.813 55.9337 450.875 55.2746 448.904 55.392C446.241 55.3294 443.654 56.2817 441.668 58.056C439.525 60.1256 438.164 62.873 437.816 65.832V65.472L434.072 87H423.848L430.9 47.112H441.052L439.752 54.6C441.182 52.113 443.26 50.0602 445.764 48.66C448.303 47.2389 451.17 46.5067 454.08 46.536C456.922 46.4241 459.724 47.2306 462.072 48.836C464.235 50.4514 465.723 52.8114 466.248 55.46C467.934 52.7645 470.258 50.5264 473.016 48.944C475.679 47.3697 478.715 46.5382 481.808 46.536H481.812Z" fill="#D3D3D3"/>
<path d="M61 122C94.6894 122 122 94.6894 122 61C122 27.3106 94.6894 0 61 0C27.3106 0 0 27.3106 0 61C0 94.6894 27.3106 122 61 122Z" fill="#C4C4C4"/>
<path d="M43.201 77.177C40.0272 77.3124 36.8953 76.4129 34.277 74.614C33.1459 73.75 32.2423 72.6235 31.6443 71.3319C31.0463 70.0403 30.772 68.6224 30.845 67.201C30.859 66.3727 30.9355 65.5467 31.074 64.73C31.4707 62.53 32.035 59.891 32.767 56.813C34.8417 48.423 40.1957 44.228 48.8291 44.228C50.9929 44.1925 53.1415 44.5974 55.144 45.418C56.9217 46.1147 58.4512 47.3256 59.5371 48.896C60.6321 50.514 61.1917 52.435 61.137 54.388C61.1213 55.2009 61.0448 56.0115 60.9081 56.813C60.4501 59.5283 59.901 62.1673 59.261 64.73C58.1944 68.9093 56.3487 72.0363 53.724 74.111C51.102 76.155 47.5944 77.177 43.201 77.177ZM43.842 70.587C45.427 70.6308 46.9734 70.0938 48.1901 69.077C49.5347 67.8575 50.4494 66.2364 50.798 64.455C51.5 61.5883 52.0334 59.0866 52.3981 56.95C52.5208 56.3012 52.5821 55.6423 52.581 54.982C52.581 52.2053 51.132 50.8173 48.234 50.818C46.6362 50.7797 45.0776 51.3154 43.841 52.328C42.5213 53.5603 41.6243 55.1778 41.278 56.95C40.7287 58.994 40.1797 61.4956 39.631 64.455C39.5069 65.088 39.4456 65.7318 39.448 66.377C39.448 69.1836 40.9127 70.587 43.842 70.587Z" fill="white"/>
<path d="M63.245 76.7199C63.0996 76.7284 62.9542 76.7041 62.8195 76.6487C62.6849 76.5933 62.5644 76.5083 62.467 76.4C62.3148 76.154 62.2656 75.8579 62.33 75.576L68.645 45.8299C68.7009 45.5017 68.8797 45.2071 69.145 45.0059C69.3903 44.8036 69.6971 44.6907 70.015 44.686H82.188C85.054 44.5453 87.895 45.2795 90.334 46.7909C91.3368 47.4478 92.1512 48.3546 92.6969 49.4219C93.2426 50.4893 93.5008 51.6804 93.446 52.878C93.4417 53.679 93.3494 54.477 93.171 55.2579C92.6664 58.3413 91.0155 61.1201 88.549 63.0379C86.261 64.7159 83.1187 65.555 79.122 65.555H72.945L70.84 75.5769C70.784 75.9051 70.6053 76.1997 70.34 76.4009C70.0951 76.6031 69.7886 76.716 69.471 76.721L63.245 76.7199ZM79.445 59.238C80.6441 59.2644 81.8184 58.8946 82.786 58.186C83.7816 57.4548 84.4673 56.3774 84.708 55.1659C84.793 54.7131 84.8389 54.2537 84.845 53.7929C84.871 53.4207 84.8148 53.0473 84.6804 52.6993C84.5459 52.3512 84.3365 52.037 84.067 51.779C83.3034 51.215 82.3578 50.9541 81.413 51.0469H75.922L74.183 59.238H79.445Z" fill="white"/>
</g>
<defs>
<clipPath id="clip0_50_14">
<rect width="494.84" height="122" fill="white"/>
</clipPath>
</defs>
</svg>
